TITLE ""
FILE "1Q_t_1320-1329.mp3" MP3
  TRACK 01 AUDIO
    TITLE "1Q_t_1320-1329_01"
    INDEX 01 00:00:00
  TRACK 02 AUDIO
    TITLE "1Q_t_1320-1329_02"
    INDEX 01 00:00:08
  TRACK 03 AUDIO
    TITLE "1Q_t_1320-1329_03"
    INDEX 01 00:01:10
  TRACK 04 AUDIO
    TITLE "1Q_t_1320-1329_04"
    INDEX 01 00:01:18
  TRACK 05 AUDIO
    TITLE "1Q_t_1320-1329_05"
    INDEX 01 00:03:16
  TRACK 06 AUDIO
    TITLE "1Q_t_1320-1329_06"
    INDEX 01 00:03:22
  TRACK 07 AUDIO
    TITLE "1Q_t_1320-1329_07"
    INDEX 01 00:08:10
  TRACK 08 AUDIO
    TITLE "1Q_t_1320-1329_08"
    INDEX 01 00:08:57
  TRACK 09 AUDIO
    TITLE "1Q_t_1320-1329_09"
    INDEX 01 00:09:74
  TRACK 10 AUDIO
    TITLE "1Q_t_1320-1329_10"
    INDEX 01 00:10:09
  TRACK 11 AUDIO
    TITLE "1Q_t_1320-1329_11"
    INDEX 01 00:13:07
  TRACK 12 AUDIO
    TITLE "1Q_t_1320-1329_12"
    INDEX 01 00:13:15
  TRACK 13 AUDIO
    TITLE "1Q_t_1320-1329_13"
    INDEX 01 00:18:40
  TRACK 14 AUDIO
    TITLE "1Q_t_1320-1329_14"
    INDEX 01 00:19:08
  TRACK 15 AUDIO
    TITLE "1Q_t_1320-1329_15"
    INDEX 01 00:20:27
  TRACK 16 AUDIO
    TITLE "1Q_t_1320-1329_16"
    INDEX 01 00:20:37
  TRACK 17 AUDIO
    TITLE "1Q_t_1320-1329_17"
    INDEX 01 00:22:35
  TRACK 18 AUDIO
    TITLE "1Q_t_1320-1329_18"
    INDEX 01 00:22:41
  TRACK 19 AUDIO
    TITLE "1Q_t_1320-1329_19"
    INDEX 01 00:27:23
  TRACK 20 AUDIO
    TITLE "1Q_t_1320-1329_20"
    INDEX 01 00:27:68
  TRACK 21 AUDIO
    TITLE "1Q_t_1320-1329_21"
    INDEX 01 00:29:12
  TRACK 22 AUDIO
    TITLE "1Q_t_1320-1329_22"
    INDEX 01 00:29:18
  TRACK 23 AUDIO
    TITLE "1Q_t_1320-1329_23"
    INDEX 01 00:32:04
  TRACK 24 AUDIO
    TITLE "1Q_t_1320-1329_24"
    INDEX 01 00:32:12
  TRACK 25 AUDIO
    TITLE "1Q_t_1320-1329_25"
    INDEX 01 00:36:51
  TRACK 26 AUDIO
    TITLE "1Q_t_1320-1329_26"
    INDEX 01 00:37:27
  TRACK 27 AUDIO
    TITLE "1Q_t_1320-1329_27"
    INDEX 01 00:38:38
  TRACK 28 AUDIO
    TITLE "1Q_t_1320-1329_28"
    INDEX 01 00:38:44
  TRACK 29 AUDIO
    TITLE "1Q_t_1320-1329_29"
    INDEX 01 00:40:16
  TRACK 30 AUDIO
    TITLE "1Q_t_1320-1329_30"
    INDEX 01 00:40:22
  TRACK 31 AUDIO
    TITLE "1Q_t_1320-1329_31"
    INDEX 01 00:44:51
  TRACK 32 AUDIO
    TITLE "1Q_t_1320-1329_32"
    INDEX 01 00:45:21
  TRACK 33 AUDIO
    TITLE "1Q_t_1320-1329_33"
    INDEX 01 00:46:32
  TRACK 34 AUDIO
    TITLE "1Q_t_1320-1329_34"
    INDEX 01 00:46:40
  TRACK 35 AUDIO
    TITLE "1Q_t_1320-1329_35"
    INDEX 01 00:49:34
  TRACK 36 AUDIO
    TITLE "1Q_t_1320-1329_36"
    INDEX 01 00:49:40
  TRACK 37 AUDIO
    TITLE "1Q_t_1320-1329_37"
    INDEX 01 00:54:20
  TRACK 38 AUDIO
    TITLE "1Q_t_1320-1329_38"
    INDEX 01 00:54:65
  TRACK 39 AUDIO
    TITLE "1Q_t_1320-1329_39"
    INDEX 01 00:55:66
  TRACK 40 AUDIO
    TITLE "1Q_t_1320-1329_40"
    INDEX 01 00:56:01
  TRACK 41 AUDIO
    TITLE "1Q_t_1320-1329_41"
    INDEX 01 00:58:49
  TRACK 42 AUDIO
    TITLE "1Q_t_1320-1329_42"
    INDEX 01 00:58:55
  TRACK 43 AUDIO
    TITLE "1Q_t_1320-1329_43"
    INDEX 01 01:03:44
  TRACK 44 AUDIO
    TITLE "1Q_t_1320-1329_44"
    INDEX 01 01:04:18
  TRACK 45 AUDIO
    TITLE "1Q_t_1320-1329_45"
    INDEX 01 01:05:37
  TRACK 46 AUDIO
    TITLE "1Q_t_1320-1329_46"
    INDEX 01 01:05:43
  TRACK 47 AUDIO
    TITLE "1Q_t_1320-1329_47"
    INDEX 01 01:07:11
  TRACK 48 AUDIO
    TITLE "1Q_t_1320-1329_48"
    INDEX 01 01:07:15
  TRACK 49 AUDIO
    TITLE "1Q_t_1320-1329_49"
    INDEX 01 01:11:53
  TRACK 50 AUDIO
    TITLE "1Q_t_1320-1329_50"
    INDEX 01 01:12:22
  TRACK 51 AUDIO
    TITLE "1Q_t_1320-1329_51"
    INDEX 01 01:13:46
  TRACK 52 AUDIO
    TITLE "1Q_t_1320-1329_52"
    INDEX 01 01:13:54
  TRACK 53 AUDIO
    TITLE "1Q_t_1320-1329_53"
    INDEX 01 01:15:08
  TRACK 54 AUDIO
    TITLE "1Q_t_1320-1329_54"
    INDEX 01 01:15:14
  TRACK 55 AUDIO
    TITLE "1Q_t_1320-1329_55"
    INDEX 01 01:19:73
  TRACK 56 AUDIO
    TITLE "1Q_t_1320-1329_56"
    INDEX 01 01:20:54
  TRACK 57 AUDIO
    TITLE "1Q_t_1320-1329_57"
    INDEX 01 01:21:70
  TRACK 58 AUDIO
    TITLE "1Q_t_1320-1329_58"
    INDEX 01 01:22:00
  TRACK 59 AUDIO
    TITLE "1Q_t_1320-1329_59"
    INDEX 01 01:23:10
  TRACK 60 AUDIO
    TITLE "1Q_t_1320-1329_60"
    INDEX 01 01:23:16
  TRACK 61 AUDIO
    TITLE "1Q_t_1320-1329_61"
    INDEX 01 01:27:68
